<?xml version="1.0" encoding="UTF-8"?>
<!DOCTYPE svg PUBLIC "-//W3C//DTD SVG 1.1//EN" "http://www.w3.org/Graphics/SVG/1.1/DTD/svg11.dtd">
<!-- Creator: CorelDRAW X7 -->
<svg xmlns="http://www.w3.org/2000/svg" xml:space="preserve" width="177.365mm" height="175.974mm" version="1.1" style="shape-rendering:geometricPrecision; text-rendering:geometricPrecision; image-rendering:optimizeQuality; fill-rule:evenodd; clip-rule:evenodd"
viewBox="0 0 10476 10393"
 xmlns:xlink="http://www.w3.org/1999/xlink">
 <defs>
  <style type="text/css">
   <![CDATA[
    .str0 {stroke:black;stroke-width:11.8124}
    .fil1 {fill:none}
    .fil0 {fill:black}
   ]]>
  </style>
 </defs>
 <g id="Layer_x0020_1">
  <metadata id="CorelCorpID_0Corel-Layer"/>
  <circle class="fil0 str0" cx="5240" cy="6186" r="2279"/>
  <ellipse class="fil1 str0" cx="5238" cy="5197" rx="5232" ry="5191"/>
  <path class="fil1 str0" d="M377 6923c1615,4136 8094,4311 9721,0"/>
  <path class="fil0" d="M377 6923c-195,-539 -301,-1121 -301,-1726 0,-2828 2311,-5121 5162,-5121 2850,0 5161,2293 5161,5121 0,605 -106,1187 -301,1726 -1627,4311 -8106,4136 -9721,0zm4705 -6915c-2817,82 -5076,2373 -5076,5189 0,2866 2342,5190 5232,5190 2889,0 5232,-2324 5232,-5190 0,-2816 -2259,-5107 -5077,-5189l-311 0z"/>
  <path class="fil0" d="M5425 665c0,-71 -41,-133 -100,-162l32 0c25,18 47,42 61,70 15,27 23,58 23,91 0,33 -9,65 -23,92 -15,28 -37,53 -63,71l-30 0c59,-30 100,-92 100,-162zm-181 -44c24,0 43,20 43,44 0,23 -19,43 -43,43 -24,0 -43,-20 -43,-43 0,-24 19,-44 43,-44zm-82 -118c-59,29 -100,91 -100,162 0,70 41,132 100,162l-30 0c-26,-18 -48,-43 -63,-71 -14,-27 -22,-59 -22,-92 0,-33 8,-64 22,-91 15,-28 36,-52 62,-70l31 0zm194 329l-225 0 -1 0 0 0c-28,-19 -50,-44 -66,-73 -15,-28 -23,-61 -23,-95 0,-34 8,-66 23,-94 15,-29 37,-54 64,-73l1 0 1 0 227 0 1 0 1 0c27,19 49,44 65,73 14,28 23,60 23,94 0,34 -9,67 -24,95 -15,29 -38,54 -65,73l-1 0 -1 0z"/>
  <path class="fil0" d="M5383 1196c0,-67 -48,-123 -111,-136l46 0c24,13 44,33 59,56 14,24 22,51 22,80 0,29 -9,56 -23,79 -14,24 -34,44 -59,57l-45 0c63,-13 111,-69 111,-136zm-139 -43c24,0 43,19 43,43 0,24 -19,43 -43,43 -24,0 -43,-19 -43,-43 0,-24 19,-43 43,-43zm-29 -93c-63,13 -111,69 -111,136 0,67 48,123 111,136l-45 0c-24,-13 -45,-33 -59,-57 -14,-23 -22,-50 -22,-79 0,-29 8,-56 22,-80 14,-23 34,-43 59,-56l45 0zm103 278l-148 0 -1 0 -1 0c-26,-14 -47,-35 -62,-60 -15,-24 -23,-52 -23,-82 0,-30 8,-59 23,-83 14,-25 36,-45 62,-59l0 0 1 0 149 0 1 0 1 0c25,14 47,34 62,59 14,24 22,53 22,83 0,30 -8,58 -22,82 -15,25 -37,46 -63,60l-1 0 0 0z"/>
  <g id="_403379507376">
   <path class="fil0" d="M4693 1747c188,-43 254,243 65,286 -194,43 -255,-244 -65,-286zm200 309c3,-53 3,-122 1,-175 -2,-35 -17,-71 -38,-97 -5,-7 -4,-5 -11,-12 -33,-34 -84,-57 -145,-49 -53,7 -88,37 -110,65 -100,119 21,310 182,263 66,-19 85,-62 100,-75l1 82 20 -2z"/>
   <path class="fil0" d="M5722 1748c88,-24 163,40 179,107 21,89 -40,161 -109,177 -186,44 -264,-232 -70,-284zm203 309c3,-53 2,-122 1,-177 -2,-54 -31,-94 -57,-116 -82,-70 -200,-44 -244,20 -105,151 31,306 175,268 50,-13 101,-65 102,-71 1,-2 2,-2 3,-3l0 79 20 0z"/>
   <path class="fil0" d="M4942 2058c5,-57 -7,-171 6,-218 37,-125 219,-130 258,1 12,41 3,164 5,216l21 1c4,-55 7,-192 -10,-237 -44,-123 -236,-138 -291,2 -15,38 -13,187 -9,235l20 0z"/>
   <path class="fil0" d="M5276 2058c3,-57 -8,-172 6,-218 15,-51 62,-96 129,-96 65,1 114,46 128,97 13,44 4,161 6,216l21 1c3,-51 5,-196 -11,-237 -49,-128 -240,-133 -291,2 -15,41 -13,184 -9,235l21 0z"/>
  </g>
 </g>
</svg>
